# xmcd CD database file
#
# Track frame offsets:
#	182
#	16760
#	28725
#	51917
#	67667
#	84045
#	105030
#	123445
#	136212
#	150542
#	173492
#
# Disc length: 2859 seconds
#
# Revision: 0
# Processed by: cddbd v1.5.1PL2 Copyright (c) Steve Scherf et al.
# Submitted via: CDex 1.51
#
DISCID=6e0b290b
DTITLE=niquel - buena caballo
DYEAR=1900
DGENRE=Salsa
TTITLE0=fuky -fuky
TTITLE1=no tengo timon
TTITLE2=amigos
TTITLE3=rumbo al infierno
TTITLE4=puerta
TTITLE5=bluz mariachi
TTITLE6=por hoy
TTITLE7=sin despues
TTITLE8=algun dia
TTITLE9=vivir sin tu amor
TTITLE10=demasiado que perder
EXTD=
EXTT0=
EXTT1=
EXTT2=
EXTT3=
EXTT4=
EXTT5=
EXTT6=
EXTT7=
EXTT8=
EXTT9=
EXTT10=
PLAYORDER=
